#!OML:ASF E:\acrobat2\Project_11_07_03\Capture day 1\Session 1\Acrobat.ASF
:FULLY-SPECIFIED
:DEGREES
661
root 10.7577 6.03771 11.6596 -88.542 4.04381 178.234
lowerback -4.70053 -3.39457 5.20989
upperback 0.702054 -4.87272 0.638383
thorax 2.98176 -2.35046 -2.58588
lowerneck 3.20098 -14.9215 -10.43
upperneck -28.3941 -15.8092 29.4632
head -5.15726 -8.42793 11.9934
rclavicle -2.70347e-014 2.55687e-014
rhumerus 31.8324 -34.4544 -32.1651
rradius 120.009
rwrist -23.0158
rhand -19.5337 -42.6434
rfingers 7.12502
rthumb 6.78995 -72.5145
lclavicle -2.70347e-014 2.55687e-014
lhumerus 17.6212 48.9212 2.62502
lradius 108.374
lwrist 34.1399
lhand -5.74205 -25.0329
lfingers 7.12502
lthumb 20.0803 3.94942
rfemur 1.85936 15.2737 -8.83035
rtibia -7.95139e-016
rfoot 30.8731 -24.0906
rtoes 32.4805
lfemur -11.9081 -21.6449 2.88722
ltibia 18.8767
lfoot 37.8196 11.1817
ltoes 18.5137
662
root 10.7571 6.03755 11.6594 -88.5438 4.04088 178.219
lowerback -4.70266 -3.39879 5.21808
upperback 0.705962 -4.87912 0.637525
thorax 2.98577 -2.35334 -2.59195
lowerneck 3.17505 -14.923 -10.4444
upperneck -28.3734 -15.8117 29.4812
head -5.14164 -8.42795 11.9961
rclavicle 4.45278e-014 -4.50993e-014
rhumerus 31.8737 -34.4731 -32.1488
rradius 119.967
rwrist -23.0276
rhand -19.5214 -42.6434
rfingers 7.12502
rthumb 6.80182 -72.5141
lclavicle 4.45278e-014 -4.50993e-014
lhumerus 17.6335 48.9333 2.60721
lradius 108.358
lwrist 34.1705
lhand -5.74276 -25.0625
lfingers 7.12502
lthumb 20.0796 3.91989
rfemur 1.86747 15.2605 -8.82476
rtibia -2.82274e-014
rfoot 30.8814 -24.0334
rtoes 32.4087
lfemur -11.9045 -21.66 2.89036
ltibia 18.8562
lfoot 37.8193 11.2245
ltoes 18.6141
663
root 10.7564 6.037 11.6594 -88.5448 4.06655 178.205
lowerback -4.71052 -3.40313 5.19789
upperback 0.709688 -4.88402 0.629573
thorax 2.99458 -2.35568 -2.58999
lowerneck 3.16422 -14.9227 -10.4537
upperneck -28.3705 -15.8095 29.4959
head -5.13624 -8.42637 12.0011
rclavicle -7.4743e-014 1.59276e-014
rhumerus 31.9021 -34.478 -32.1394
rradius 119.938
rwrist -23.0323
rhand -19.5179 -42.6275
rfingers 7.12502
rthumb 6.80522 -72.4981
lclavicle -7.4743e-014 1.59276e-014
lhumerus 17.6446 48.9351 2.60286
lradius 108.35
lwrist 34.207
lhand -5.74473 -25.1005
lfingers 7.12502
lthumb 20.0777 3.8821
rfemur 1.87556 15.2484 -8.85438
rtibia 2.46493e-014
rfoot 30.8899 -23.9911
rtoes 32.369
lfemur -11.8989 -21.6969 2.86076
ltibia 18.8349
lfoot 37.8141 11.3043
ltoes 18.8856
664
root 10.7558 6.03618 11.6595 -88.5461 4.12296 178.194
lowerback -4.72088 -3.40726 5.14654
upperback 0.713359 -4.8865 0.613809
thorax 3.00675 -2.35714 -2.57891
lowerneck 3.16264 -14.9244 -10.4543
upperneck -28.3748 -15.8109 29.4982
head -5.13657 -8.42685 12.0021
rclavicle -6.67916e-014 -1.2101e-014
rhumerus 31.9121 -34.4752 -32.1368
rradius 119.927
rwrist -23.0319
rhand -19.5272 -42.5999
rfingers 7.12502
rthumb 6.79626 -72.4708
lclavicle -6.67916e-014 -1.2101e-014
lhumerus 17.6561 48.9304 2.61277
lradius 108.352
lwrist 34.2489
lhand -5.75264 -25.1156
lfingers 7.12502
lthumb 20.0701 3.86777
rfemur 1.88566 15.2379 -8.92051
rtibia -2.38542e-015
rfoot 30.8728 -23.9847
rtoes 32.3923
lfemur -11.896 -21.7446 2.79557
ltibia 18.8216
lfoot 37.8105 11.3835
ltoes 19.1886
665
root 10.7552 6.03522 11.6596 -88.5438 4.18594 178.188
lowerback -4.73575 -3.40933 5.09041
upperback 0.71644 -4.88608 0.595825
thorax 3.02126 -2.35713 -2.56761
lowerneck 3.16225 -14.9301 -10.4444
upperneck -28.3742 -15.8209 29.4854
head -5.1371 -8.43163 11.9951
rclavicle 3.49861e-014 1.54307e-014
rhumerus 31.9075 -34.4704 -32.1384
rradius 119.932
rwrist -23.0232
rhand -19.5461 -42.5612
rfingers 7.12502
rthumb 6.77802 -72.4327
lclavicle 3.49861e-014 1.54307e-014
lhumerus 17.665 48.9245 2.63078
lradius 108.362
lwrist 34.2872
lhand -5.76822 -25.0986
lfingers 7.12502
lthumb 20.0552 3.88638
rfemur 1.89148 15.2293 -8.99597
rtibia 0
rfoot 30.8446 -24.004
rtoes 32.5138
lfemur -11.9012 -21.7883 2.72329
ltibia 18.8213
lfoot 37.8138 11.4204
ltoes 19.3684
